<?xml version="1.0" standalone="no"?>
<!DOCTYPE svg PUBLIC "-//W3C//DTD SVG 20010904//EN"
 "http://www.w3.org/TR/2001/REC-SVG-20010904/DTD/svg10.dtd">
<svg version="1.0" xmlns="http://www.w3.org/2000/svg"
 width="500.000000pt" height="500.000000pt" viewBox="0 0 500.000000 500.000000"
 preserveAspectRatio="xMidYMid meet">

<g transform="translate(0.000000,500.000000) scale(0.100000,-0.100000)"
fill="#000000" stroke="none">
<path d="M1440 4360 c-12 -8 -11 -10 8 -10 12 0 22 5 22 10 0 13 -11 13 -30 0z"/>
<path d="M1738 4343 c-12 -13 -24 -20 -27 -17 -3 3 1 9 9 14 10 7 -3 10 -42
10 -32 0 -58 -4 -58 -8 0 -5 -57 -9 -127 -9 l-128 -1 -165 -73 c-143 -63 -173
-73 -225 -73 -50 -1 -71 -7 -125 -38 -36 -20 -81 -48 -100 -63 -19 -14 -53
-34 -75 -44 -48 -22 -126 -88 -124 -104 3 -20 -12 -47 -27 -47 -17 0 -18 17
-1 23 8 4 8 6 0 6 -17 1 -211 -201 -261 -272 -72 -102 -145 -263 -143 -314 1
-32 -3 -43 -14 -43 -8 0 -15 -8 -15 -17 0 -14 2 -15 9 -4 13 20 18 3 19 -66 1
-49 -2 -63 -13 -63 -9 0 -15 11 -16 28 l-1 27 -7 -30 c-3 -16 2 -68 11 -115
10 -47 18 -101 18 -120 1 -52 33 -114 72 -138 93 -58 274 -69 428 -28 201 54
518 248 503 307 -7 25 -12 24 -59 -9 -41 -30 -113 -62 -139 -62 -9 0 28 30 82
66 54 36 100 68 101 69 2 2 1 13 -3 25 -9 29 -28 24 -205 -59 -164 -77 -318
-137 -377 -147 -41 -6 -105 17 -131 48 -25 31 -45 141 -39 228 8 145 67 261
206 404 132 136 384 308 538 367 39 16 80 33 90 38 10 6 91 33 180 61 89 28
177 57 195 66 l33 15 -32 -5 c-47 -8 -51 12 -6 30 21 9 45 22 53 29 8 7 29 15
47 17 l32 4 -15 -28 c-8 -15 -22 -28 -30 -28 -10 0 -14 -6 -10 -15 8 -22 -143
-305 -171 -318 -12 -5 -20 -14 -17 -18 3 -5 -4 -9 -15 -9 -12 0 -21 5 -21 10
0 6 -8 10 -17 10 -15 0 -16 -2 -3 -10 11 -7 7 -10 -18 -10 -20 0 -31 4 -27 10
10 16 -25 12 -41 -5 -13 -12 -34 -14 -111 -10 -53 3 -105 2 -117 -1 -20 -7
-20 -7 4 -17 l25 -9 -29 -9 c-16 -4 -33 -6 -37 -4 -4 3 -10 -1 -13 -7 -5 -10
-7 -10 -12 0 -3 6 -12 12 -21 12 -8 0 -13 -6 -11 -12 3 -8 35 -16 84 -21 208
-20 217 -24 62 -26 -82 0 -148 -5 -148 -10 0 -10 148 -21 292 -21 83 0 108 -3
108 -13 0 -8 -32 -83 -71 -168 -111 -241 -139 -314 -146 -379 -3 -33 -3 -60 0
-60 4 0 21 28 38 62 26 51 33 59 41 44 9 -16 -13 -65 -71 -156 -15 -24 -15
-24 3 -11 10 8 27 35 38 59 12 24 32 49 45 55 35 15 103 128 209 344 60 123
103 199 118 209 21 13 38 14 118 5 52 -6 124 -8 160 -4 36 3 82 3 101 -1 l36
-7 -49 -143 c-27 -79 -65 -183 -84 -231 -19 -47 -32 -93 -29 -102 4 -10 2 -14
-4 -10 -6 4 -14 0 -17 -9 -3 -8 -2 -12 4 -9 6 3 10 4 10 2 0 -16 -87 -252
-121 -329 -22 -51 -41 -99 -42 -107 -4 -29 20 -19 53 24 36 45 71 63 50 26
-25 -47 -7 -31 21 19 17 30 42 66 54 80 27 29 63 98 99 189 30 74 30 75 15 65
-14 -8 -2 36 13 51 7 7 8 2 3 -15 -17 -57 7 -4 84 185 45 110 77 201 72 203
-6 2 -7 10 -4 18 4 11 8 12 13 5 3 -7 30 46 59 116 109 263 134 319 177 405
47 94 50 103 32 92 -8 -5 -9 -1 -5 14 4 12 10 31 13 42 5 17 3 19 -12 13 -18
-7 -18 -6 -1 20 9 14 17 34 17 44 0 13 -6 11 -32 -13 -17 -16 -27 -22 -23 -14
25 43 -29 -19 -62 -71 -19 -32 -39 -57 -43 -54 -12 7 -51 -72 -44 -91 5 -15 4
-16 -4 -5 -8 12 -23 -11 -66 -98 -31 -63 -61 -120 -68 -128 -10 -12 -47 -14
-206 -11 -210 3 -217 5 -191 56 21 42 22 49 3 27 -18 -21 -16 -14 10 48 25 58
8 43 -20 -18 -29 -62 -53 -87 -29 -28 19 45 84 163 90 163 3 0 0 -12 -5 -26
-21 -54 -7 -35 37 51 69 135 103 239 73 220 -6 -4 -8 -15 -5 -25 5 -15 2 -17
-15 -13 -16 4 -21 12 -18 27 6 30 -26 29 -54 -1z m-118 -53 c-14 -4 -34 -8
-45 -9 -16 -1 -17 1 -5 9 8 5 29 9 45 9 29 -1 29 -1 5 -9z m691 -67 c-12 -20
-14 -14 -5 12 4 9 9 14 11 11 3 -2 0 -13 -6 -23z m-546 -53 c-9 -18 -19 -30
-21 -27 -3 2 3 18 13 35 10 17 19 29 21 27 2 -2 -4 -17 -13 -35z m395 -178 c0
-5 -7 -17 -15 -28 -14 -18 -14 -17 -4 9 12 27 19 34 19 19z m-509 -89 c-12
-20 -14 -14 -5 12 4 9 9 14 11 11 3 -2 0 -13 -6 -23z m-1258 -195 c-10 -16
-42 -56 -71 -89 -98 -108 -87 -56 13 64 57 67 91 83 58 25z m1587 12 c0 -5
-15 -10 -32 -10 -25 0 -29 3 -18 10 20 13 50 13 50 0z m-494 -111 c-99 -214
-147 -311 -152 -306 -4 3 36 92 87 196 51 105 94 189 96 187 2 -2 -12 -37 -31
-77z m588 -73 c-14 -36 -30 -69 -35 -72 -5 -3 0 19 12 48 12 29 25 64 30 77 5
13 12 21 15 19 3 -3 -7 -35 -22 -72z m-1824 -1 c0 -8 -4 -15 -10 -15 -5 0 -10
7 -10 15 0 8 5 15 10 15 6 0 10 -7 10 -15z m100 6 c0 -11 -39 -59 -40 -49 0
14 23 58 32 58 4 0 8 -4 8 -9z m-134 -258 c-13 -24 -15 -25 -16 -7 0 11 5 25
12 32 19 19 21 6 4 -25z m977 -81 c-3 -12 -9 -22 -14 -22 -5 0 -3 11 3 25 13
30 20 28 11 -3z m-986 -54 c-3 -8 -6 -5 -6 6 -1 11 2 17 5 13 3 -3 4 -12 1
-19z m1713 -59 c-11 -24 -20 -39 -20 -32 0 15 32 84 37 79 2 -1 -6 -23 -17
-47z m-1585 -48 c5 -17 4 -22 -6 -19 -8 3 -15 18 -17 34 -4 33 11 24 23 -15z
m-49 -31 c6 -32 5 -34 -10 -20 -8 8 -18 31 -22 50 -6 32 -5 34 10 20 8 -8 18
-31 22 -50z m-132 34 c3 -9 6 -25 6 -36 0 -17 -3 -18 -15 -8 -16 13 -21 60 -6
60 5 0 12 -7 15 -16z m1616 -114 c-24 -60 -47 -110 -51 -110 -4 0 13 51 39
114 26 63 48 113 51 110 2 -2 -15 -53 -39 -114z m-1560 21 c25 -48 30 -71 14
-71 -14 0 -44 55 -44 80 0 17 19 11 30 -9z m210 -51 c0 -19 -38 -9 -64 16 -44
44 -32 59 19 24 25 -17 45 -35 45 -40z m-124 -28 c-9 -9 -46 30 -46 47 1 11 8
8 26 -13 14 -15 23 -31 20 -34z m-126 9 c-1 -13 -3 -13 -15 3 -19 26 -19 42 0
26 8 -7 15 -20 15 -29z"/>
<path d="M2785 4343 c-11 -13 -57 -39 -102 -57 -89 -37 -181 -98 -251 -167
-43 -42 -51 -69 -9 -33 69 61 78 51 16 -20 -22 -25 -36 -46 -31 -46 5 0 16 8
23 17 36 44 135 97 112 61 -7 -12 11 -2 87 49 45 30 63 30 55 1 -4 -13 -34
-90 -67 -173 -34 -82 -86 -215 -118 -295 -66 -170 -233 -650 -228 -656 2 -2
21 8 41 22 40 27 41 27 28 -9 -5 -14 -6 -30 0 -38 7 -11 20 -2 64 41 50 50 57
63 81 145 31 107 63 185 76 185 5 0 46 -30 91 -66 93 -74 460 -323 561 -379
49 -27 65 -42 62 -54 -3 -9 -8 -29 -11 -46 l-6 -30 16 29 c12 20 20 25 28 17
8 -8 6 -20 -6 -46 -17 -35 -22 -65 -12 -65 13 0 83 50 96 69 14 21 14 21 93
-24 87 -50 91 -51 82 -30 -4 10 1 15 14 15 23 0 27 18 5 26 -11 5 -12 11 -4
25 11 22 30 24 76 7 37 -13 40 -20 18 -38 -14 -12 -12 -15 11 -31 27 -17 29
-17 78 9 28 14 55 25 59 24 10 -3 139 84 242 162 97 75 118 93 83 72 -47 -28
-31 -3 22 34 27 19 55 34 61 32 12 -3 67 42 214 178 55 51 154 137 220 192
129 108 210 193 232 247 22 52 9 101 -32 128 -23 15 -32 28 -29 38 5 12 -2 15
-29 15 -20 0 -42 6 -49 13 -21 20 -198 21 -331 1 -91 -13 -120 -15 -130 -5 -8
8 -9 17 -1 29 5 9 115 70 244 134 129 64 229 117 222 118 -7 0 -29 -7 -48 -15
-20 -8 -41 -12 -46 -9 -5 4 42 27 106 52 64 26 116 50 116 54 0 4 -24 5 -52 2
l-53 -5 75 31 c41 17 92 36 113 42 45 13 50 38 8 38 -96 0 -312 -65 -466 -141
-309 -152 -414 -239 -445 -370 -11 -45 -10 -52 6 -71 11 -11 32 -27 49 -35 16
-9 37 -23 46 -33 13 -13 27 -15 68 -10 57 7 65 -2 24 -24 -40 -22 -27 -19 57
9 143 49 292 69 318 43 7 -7 12 -26 12 -42 0 -24 -13 -43 -63 -91 -120 -115
-344 -300 -563 -467 -120 -92 -253 -194 -295 -227 l-76 -59 -79 43 c-43 24
-78 47 -77 52 1 4 112 279 247 609 135 331 244 610 244 620 -1 11 2 32 6 47 6
24 4 28 -11 25 -16 -3 -60 -89 -93 -182 -5 -16 -12 -27 -15 -24 -3 2 11 41 30
87 40 95 80 220 72 227 -3 3 -13 -6 -22 -20 -25 -38 -39 -33 -32 12 6 35 5 36
-10 17 -47 -60 -321 -682 -457 -1040 -72 -186 -116 -285 -129 -285 -19 0 -356
217 -472 304 -81 61 -205 173 -205 186 0 4 24 10 54 13 103 10 295 103 443
213 40 30 75 54 77 54 3 0 2 -8 -1 -17 -4 -10 26 22 65 72 79 97 112 176 112
264 -1 95 -43 146 -180 217 -51 26 -65 29 -187 32 -109 3 -136 1 -155 -12 -27
-19 -55 -21 -60 -3 -2 9 -9 6 -23 -10z m323 -159 c98 -22 142 -51 115 -78 -4
-4 -6 -24 -4 -46 3 -44 -15 -84 -54 -120 l-27 -25 7 25 c5 19 -5 11 -44 -31
-62 -70 -125 -111 -244 -160 -51 -21 -92 -44 -92 -51 0 -12 -94 -43 -103 -34
-4 4 75 200 118 291 15 33 33 78 40 100 19 61 58 133 77 144 21 13 119 6 211
-15z m1542 -49 c0 -4 -140 -72 -210 -102 -64 -27 -15 7 81 58 83 43 129 59
129 44z m-1896 -80 c-4 -8 -10 -15 -15 -15 -4 0 -6 7 -3 15 4 8 10 15 15 15 4
0 6 -7 3 -15z m536 -29 c0 -3 -4 -8 -10 -11 -5 -3 -10 -1 -10 4 0 6 5 11 10
11 6 0 10 -2 10 -4z m920 -156 c0 -5 -4 -10 -10 -10 -5 0 -10 5 -10 10 0 6 5
10 10 10 6 0 10 -4 10 -10z m-45 -78 c-8 -8 -25 10 -25 26 0 13 2 13 14 -4 8
-10 13 -21 11 -22z m88 20 c15 -10 24 -21 21 -24 -8 -9 -61 11 -75 28 -17 21
19 18 54 -4z m565 -14 c6 -6 12 -16 12 -23 0 -10 -12 -7 -39 8 -22 12 -37 25
-34 30 5 9 41 0 61 -15z m-20 -44 c20 -13 30 -34 17 -34 -3 0 -24 14 -48 31
-31 24 -36 30 -17 24 14 -4 35 -13 48 -21z m-68 -54 c0 -5 -2 -10 -4 -10 -3 0
-8 5 -11 10 -3 6 -1 10 4 10 6 0 11 -4 11 -10z m60 -10 c0 -5 -2 -10 -4 -10
-3 0 -8 5 -11 10 -3 6 -1 10 4 10 6 0 11 -4 11 -10z m-1988 -31 c-39 -19 -154
-39 -142 -26 8 9 142 46 165 45 12 0 4 -7 -23 -19z m-66 -56 c-4 -5 -30 -13
-57 -19 -40 -9 -47 -9 -38 2 11 13 35 20 78 23 13 0 21 -2 17 -6z m845 -300
c-12 -20 -14 -14 -5 12 4 9 9 14 11 11 3 -2 0 -13 -6 -23z m-629 -148 c11 -19
11 -19 -18 0 -53 34 -73 50 -74 58 0 14 81 -37 92 -58z m1118 -58 c-85 -69
-227 -167 -243 -167 -11 0 -17 3 -14 6 18 18 253 174 262 174 6 -1 3 -6 -5
-13z m-1015 -17 c3 -5 2 -10 -4 -10 -5 0 -13 5 -16 10 -3 6 -2 10 4 10 5 0 13
-4 16 -10z m1055 -21 c-62 -53 -253 -201 -307 -236 -95 -64 -78 -28 23 47 128
96 305 220 313 220 3 -1 -10 -14 -29 -31z m-15 -69 c-3 -5 -12 -10 -18 -10 -7
0 -6 4 3 10 19 12 23 12 15 0z m-315 -103 c0 -8 -18 -28 -40 -46 -34 -27 -43
-30 -61 -20 -20 10 -19 12 27 45 50 36 74 43 74 21z m-290 -37 c34 -18 60 -40
46 -40 -13 0 -96 45 -96 52 0 12 7 10 50 -12z m-120 -17 c0 -5 -5 -15 -10 -23
-8 -12 -10 -11 -10 8 0 12 5 22 10 22 6 0 10 -3 10 -7z"/>
<path d="M1756 3085 c-9 -26 -7 -32 5 -12 6 10 9 21 6 23 -2 3 -7 -2 -11 -11z"/>
<path d="M2335 2460 c-15 -22 -31 -37 -36 -34 -14 8 -10 24 6 24 8 0 15 3 15
8 0 4 -36 8 -80 9 -62 2 -80 -1 -80 -11 0 -11 -33 -14 -177 -14 l-178 0 -140
-62 c-77 -34 -196 -84 -265 -112 -115 -46 -128 -49 -181 -43 -52 6 -64 4 -121
-25 -35 -17 -106 -60 -158 -94 -52 -35 -116 -73 -141 -85 -73 -34 -184 -132
-184 -162 0 -32 -25 -69 -47 -69 -25 0 -23 21 2 27 11 3 20 12 20 19 0 26 -28
14 -66 -27 -22 -22 -91 -93 -155 -157 -134 -136 -218 -256 -308 -442 l-61
-125 0 -242 c0 -150 4 -243 10 -243 12 0 26 -26 35 -68 8 -39 -15 -46 -33 -9
-8 17 -11 -7 -11 -109 -1 -118 1 -134 20 -158 49 -63 184 -114 319 -122 47 -2
102 -7 122 -9 58 -8 285 46 428 102 36 14 101 47 145 73 44 26 117 69 162 95
118 69 227 163 231 199 6 51 -12 53 -77 7 -58 -40 -189 -101 -217 -101 -25 0
-14 15 26 37 22 12 88 54 145 95 95 66 105 75 100 98 -4 14 -11 29 -16 35 -14
14 -89 -15 -264 -100 -279 -136 -515 -225 -595 -225 -26 0 -64 10 -97 26 -77
38 -103 94 -122 262 -38 346 188 682 679 1007 176 117 301 186 405 224 50 19
104 41 120 51 17 10 57 25 90 35 98 27 479 154 494 164 9 6 -4 8 -39 7 -34 0
-54 3 -57 12 -3 6 1 12 9 12 19 0 135 56 139 68 4 9 89 24 89 15 0 -20 -47
-83 -62 -83 -19 0 -25 -16 -8 -22 6 -2 -22 -62 -61 -133 -39 -72 -86 -161
-104 -200 -31 -65 -86 -135 -106 -135 -5 0 -6 -7 -3 -15 5 -11 -1 -15 -20 -15
-15 0 -29 7 -32 15 -4 8 -16 15 -28 14 -11 0 -15 -3 -8 -6 25 -10 10 -23 -28
-23 -31 0 -38 3 -34 15 9 22 -35 20 -51 -2 -12 -15 -33 -17 -189 -16 -97 1
-176 -1 -176 -5 0 -4 15 -13 33 -20 l32 -13 -38 -13 c-21 -8 -47 -11 -59 -8
-14 3 -19 1 -14 -6 4 -7 1 -12 -8 -12 -9 0 -16 5 -16 10 0 6 -9 10 -20 10 -11
0 -20 -6 -20 -14 0 -9 16 -16 48 -20 92 -13 248 -25 305 -26 31 0 57 -4 57
-10 0 -6 -75 -10 -204 -10 -113 0 -207 -4 -210 -9 -12 -19 199 -36 414 -33 85
1 160 -2 167 -6 8 -5 -14 -63 -74 -192 -169 -367 -229 -519 -242 -609 -18
-121 -3 -124 53 -12 26 50 51 91 56 91 6 0 10 -15 10 -32 0 -22 -20 -66 -59
-133 -33 -55 -57 -102 -55 -105 8 -7 43 39 61 80 23 53 51 88 81 102 52 25
179 244 334 573 53 113 100 200 116 214 26 23 28 24 147 16 66 -5 195 -9 287
-9 91 -1 170 -4 173 -8 9 -8 -92 -310 -170 -508 -94 -241 -96 -246 -80 -226 8
11 15 25 15 32 0 7 4 16 10 19 23 14 -163 -490 -232 -628 -23 -47 -27 -61 -17
-73 10 -13 17 -10 46 18 18 17 45 49 59 70 26 37 54 50 54 25 0 -7 -7 -23 -16
-35 -9 -13 -14 -26 -11 -29 6 -5 11 3 76 115 24 40 49 76 56 79 28 10 97 161
244 526 82 205 186 460 231 567 46 107 97 233 115 280 48 124 109 259 178 395
77 149 74 139 48 132 -25 -6 -25 -8 -6 36 17 41 21 92 5 67 -20 -32 -22 3 -2
39 39 69 21 83 -36 29 -31 -30 -33 -30 -22 -8 29 55 -21 -4 -87 -102 -36 -54
-69 -96 -73 -93 -12 7 -72 -98 -171 -297 -68 -138 -87 -169 -111 -179 -20 -8
-63 -10 -141 -5 -62 3 -180 7 -263 7 -83 1 -157 5 -164 9 -11 7 -7 22 18 71
37 76 34 89 -5 26 -52 -83 -52 -82 -9 13 54 119 59 133 45 124 -6 -3 -28 -43
-48 -88 -21 -44 -46 -88 -56 -96 -11 -8 -17 -10 -14 -5 3 6 39 76 79 158 41
81 78 147 82 147 4 0 1 -18 -8 -40 -9 -23 -14 -43 -11 -46 9 -9 159 296 153
311 -2 7 4 25 15 41 10 16 19 47 19 68 0 37 -1 38 -14 20 -8 -10 -12 -29 -9
-41 3 -14 1 -23 -6 -23 -6 0 -11 4 -11 10 0 5 -6 7 -14 4 -20 -8 -28 10 -16
40 9 25 8 26 -10 16 -16 -9 -20 -8 -20 5 0 26 -16 17 -45 -25z m-160 -79 c-11
-5 -40 -12 -65 -16 -42 -6 -44 -6 -25 9 12 9 39 15 65 15 33 0 40 -2 25 -8z
m990 -87 c-8 -20 -15 -39 -15 -42 0 -3 -3 -3 -6 0 -6 7 22 78 31 78 3 0 -2
-16 -10 -36z m-765 -31 c0 -15 -61 -115 -67 -110 -3 3 9 31 27 61 30 53 40 65
40 49z m852 -45 c-7 -7 -12 -8 -12 -2 0 14 12 26 19 19 2 -3 -1 -11 -7 -17z
m-239 -113 c-3 -9 -8 -14 -10 -11 -3 3 -2 9 2 15 9 16 15 13 8 -4z m80 -100
c-3 -9 -8 -14 -10 -11 -3 3 -2 9 2 15 9 16 15 13 8 -4z m-158 -85 c-23 -44
-30 -31 -8 15 10 20 19 32 21 26 2 -5 -4 -24 -13 -41z m39 -15 c-4 -8 -10 -15
-15 -15 -4 0 -6 7 -3 15 4 8 10 15 15 15 4 0 6 -7 3 -15z m37 -58 c-10 -9 -11
-8 -5 6 3 10 9 15 12 12 3 -3 0 -11 -7 -18z m-2607 -266 c13 -21 -202 -277
-218 -260 -10 9 50 99 122 184 72 83 85 94 96 76z m2281 -31 c-3 -5 -27 -10
-53 -10 -34 0 -43 3 -32 10 20 13 93 13 85 0z m-672 -57 c-15 -40 -255 -539
-264 -547 -16 -17 -10 13 13 57 11 23 65 136 119 250 92 197 124 257 134 257
2 0 1 -8 -2 -17z m847 -108 c0 -2 -21 -52 -46 -110 -47 -107 -80 -157 -46 -68
52 131 75 183 83 183 5 0 9 -2 9 -5z m34 -19 c-3 -9 -10 -16 -15 -16 -6 0 -5
9 1 21 13 24 24 20 14 -5z m-2724 -65 c0 -5 3 -16 6 -25 4 -11 1 -16 -10 -16
-10 0 -16 9 -16 25 0 14 5 25 10 25 6 0 10 -4 10 -9z m150 -1 c0 -20 -29 -68
-45 -73 -20 -8 -19 -3 8 43 21 39 37 51 37 30z m-191 -378 c-24 -49 -29 -51
-29 -17 0 23 36 72 46 63 2 -2 -6 -23 -17 -46z m1413 -118 c-10 -27 -18 -39
-20 -29 -4 20 17 75 29 75 4 0 0 -21 -9 -46z m1117 -27 c-13 -48 -35 -63 -26
-17 7 31 26 65 33 57 2 -2 -1 -20 -7 -40z m-2529 -48 c0 -24 -23 -21 -28 4 -2
10 3 17 12 17 10 0 16 -9 16 -21z m2461 -100 c-17 -35 -30 -59 -31 -52 0 18
53 138 57 126 2 -5 -10 -38 -26 -74z m-2294 -57 c6 -23 8 -42 3 -42 -15 0 -40
43 -40 68 0 37 23 21 37 -26z m-68 -40 c5 -26 8 -49 5 -51 -13 -13 -44 40 -50
84 l-7 50 21 -19 c11 -10 25 -39 31 -64z m2202 16 c-27 -76 -100 -257 -116
-287 -9 -17 -14 -20 -15 -10 0 15 107 286 130 330 19 35 19 20 1 -33z m-2299
-148 c32 -64 33 -70 14 -70 -21 0 -56 54 -63 96 -9 54 16 41 49 -26z m242 10
c61 -46 67 -74 13 -59 -34 9 -97 72 -97 97 0 19 19 11 84 -38z m-151 -47 c18
-25 23 -39 15 -42 -14 -5 -58 44 -58 65 0 24 16 16 43 -23z m-167 -5 c3 -11 3
-23 -1 -26 -8 -8 -35 26 -35 45 0 19 28 4 36 -19z"/>
<path d="M1897 2483 c-14 -13 -6 -23 18 -23 16 0 25 6 25 15 0 15 -31 21 -43
8z"/>
<path d="M4880 2451 c-11 -23 -38 -59 -59 -80 -21 -21 -57 -75 -79 -120 -23
-45 -60 -103 -82 -129 -54 -63 -113 -177 -107 -207 2 -14 -1 -23 -7 -22 -12 2
-3 21 -246 -483 -236 -489 -251 -518 -313 -608 -96 -139 -195 -231 -324 -298
-89 -47 -146 -45 -199 7 -54 53 -77 109 -69 172 32 254 168 599 421 1067 31
58 54 102 50 99 -4 -3 -31 -39 -61 -79 -30 -41 -55 -67 -55 -60 0 7 57 128
126 269 83 168 126 266 125 285 -1 15 4 35 10 42 7 8 9 17 6 20 -10 11 -67
-86 -314 -534 -19 -35 -37 -61 -41 -58 -7 8 51 123 197 391 113 206 119 221
100 229 -15 7 -23 5 -35 -13 -12 -17 -19 -19 -29 -11 -11 9 -21 -2 -49 -57
-46 -89 -67 -124 -87 -143 -22 -20 -233 -409 -291 -535 -71 -156 -136 -325
-158 -411 -11 -43 -33 -119 -50 -169 -47 -144 -63 -238 -63 -370 0 -133 21
-253 57 -325 18 -36 34 -51 91 -81 77 -42 171 -69 240 -69 46 0 62 -17 25 -27
-11 -3 -20 -9 -20 -14 0 -4 25 5 56 22 31 16 76 34 100 40 36 9 60 28 136 107
133 140 208 247 300 427 44 88 120 234 168 325 135 255 342 668 320 640 -10
-14 -42 -63 -70 -109 -27 -47 -50 -79 -50 -73 0 7 68 152 150 324 83 172 150
316 150 320 0 23 -45 -24 -70 -73 -28 -54 -81 -110 -87 -92 -2 4 12 47 31 96
19 48 31 87 26 87 -5 0 -14 -8 -19 -17 -8 -14 -10 -15 -11 -3 0 8 23 57 51
108 35 65 55 92 68 92 14 0 27 18 46 65 32 73 28 99 -5 36z m-1220 -747 c0 -8
-5 -12 -10 -9 -6 4 -8 11 -5 16 9 14 15 11 15 -7z m-23 -36 c-3 -8 -6 -5 -6 6
-1 11 2 17 5 13 3 -3 4 -12 1 -19z m98 -17 c-3 -12 -11 -21 -16 -21 -6 0 -8 3
-6 8 2 4 7 16 11 26 9 25 20 13 11 -13z m-132 -65 c-15 -31 -31 -56 -35 -56
-9 0 15 63 38 98 28 42 26 16 -3 -42z m21 -63 c-12 -47 -37 -99 -41 -86 -6 17
26 113 38 113 5 0 6 -12 3 -27z m786 -62 c0 -10 -7 -21 -15 -24 -12 -5 -12 -2
-3 18 13 30 18 31 18 6z m-57 -106 c-9 -19 -19 -33 -21 -30 -7 7 19 65 29 65
5 0 1 -16 -8 -35z m-46 -97 c-3 -7 -5 -2 -5 12 0 14 2 19 5 13 2 -7 2 -19 0
-25z m-37 -88 c0 -5 -4 -10 -10 -10 -5 0 -10 5 -10 10 0 6 5 10 10 10 6 0 10
-4 10 -10z m-74 -148 c-45 -104 -76 -165 -82 -159 -6 6 102 237 110 237 3 0
-10 -35 -28 -78z m-794 -89 c-22 -59 -45 -72 -30 -16 14 51 27 75 38 68 5 -3
2 -26 -8 -52z m708 -9 c0 -12 -42 -75 -47 -71 -7 8 25 77 36 77 6 0 11 -3 11
-6z m-180 -264 c0 -11 -83 -115 -119 -148 -50 -46 -122 -67 -181 -53 -3 1 18
12 45 25 49 23 182 122 219 164 20 23 36 28 36 12z m-611 -77 c-1 -34 -2 -35
-9 -13 -11 36 -11 50 0 50 6 0 10 -17 9 -37z m51 -140 c35 -55 39 -74 9 -47
-32 28 -62 94 -44 94 3 0 19 -21 35 -47z m105 -24 c4 -6 4 -13 1 -16 -7 -7
-46 26 -46 39 0 10 36 -8 45 -23z m221 -24 c-11 -8 -29 -15 -40 -14 -15 0 -11
4 14 14 45 17 49 17 26 0z m-348 -7 c14 -14 16 -28 2 -28 -5 0 -14 9 -20 20
-12 22 -1 27 18 8z m217 -37 c31 -6 36 -10 22 -16 -22 -9 -107 1 -121 15 -12
12 40 13 99 1z m-130 -62 c78 -33 100 -57 43 -45 -36 7 -158 62 -158 70 0 14
46 4 115 -25z m168 14 c-7 -2 -19 -2 -25 0 -7 3 -2 5 12 5 14 0 19 -2 13 -5z
m192 -53 c-10 -11 -23 -20 -28 -20 -6 0 -2 9 8 20 10 11 23 20 28 20 6 0 2 -9
-8 -20z m-100 -15 c-36 -30 -84 -45 -144 -45 -50 0 -50 10 0 15 19 1 61 14 94
28 76 32 87 32 50 2z"/>
<path d="M4735 1809 c-10 -30 0 -33 13 -4 6 14 7 25 2 25 -5 0 -12 -9 -15 -21z"/>
<path d="M2407 743 c-4 -3 -7 -13 -7 -22 1 -13 3 -13 11 2 11 19 8 33 -4 20z"/>
<path d="M2364 645 c-16 -40 -19 -69 -3 -42 13 23 29 77 23 77 -3 0 -12 -16
-20 -35z"/>
<path d="M2321 534 c0 -11 3 -14 6 -6 3 7 2 16 -1 19 -3 4 -6 -2 -5 -13z"/>
</g>
</svg>
